<mxfile host="app.diagrams.net" modified="2024-06-08T19:31:35.251Z" agent="Mozilla/5.0 (Macintosh; Intel Mac OS X 10_15_7) AppleWebKit/537.36 (KHTML, like Gecko) Chrome/125.0.0.0 Safari/537.36" etag="__ga3dwDrbv31-IKtT-8" version="24.5.2" type="device">
  <diagram name="Page-1" id="1oxudDO8bU1WySAomucz">
    <mxGraphModel dx="2225" dy="1471" grid="1" gridSize="10" guides="1" tooltips="1" connect="1" arrows="1" fold="1" page="1" pageScale="1" pageWidth="850" pageHeight="1100" math="0" shadow="0">
      <root>
        <mxCell id="0" />
        <mxCell id="1" parent="0" />
        <mxCell id="5tbBxWRqEk4kRLeEOehm-81" value="" style="group" vertex="1" connectable="0" parent="1">
          <mxGeometry x="80" y="130" width="732.5" height="1549" as="geometry" />
        </mxCell>
        <mxCell id="5tbBxWRqEk4kRLeEOehm-78" value="" style="whiteSpace=wrap;html=1;fillColor=#f8cecc;strokeColor=#b85450;" vertex="1" parent="5tbBxWRqEk4kRLeEOehm-81">
          <mxGeometry y="255" width="615" height="1120" as="geometry" />
        </mxCell>
        <mxCell id="5tbBxWRqEk4kRLeEOehm-29" value="" style="edgeStyle=orthogonalEdgeStyle;rounded=0;orthogonalLoop=1;jettySize=auto;html=1;fillColor=#dae8fc;strokeColor=#6c8ebf;" edge="1" parent="5tbBxWRqEk4kRLeEOehm-81" source="5tbBxWRqEk4kRLeEOehm-8" target="5tbBxWRqEk4kRLeEOehm-11">
          <mxGeometry relative="1" as="geometry" />
        </mxCell>
        <mxCell id="5tbBxWRqEk4kRLeEOehm-8" value="" style="whiteSpace=wrap;html=1;fillColor=#dae8fc;strokeColor=#6c8ebf;" vertex="1" parent="5tbBxWRqEk4kRLeEOehm-81">
          <mxGeometry x="105" y="390" width="380" height="140" as="geometry" />
        </mxCell>
        <mxCell id="5tbBxWRqEk4kRLeEOehm-10" value="" style="whiteSpace=wrap;html=1;fillColor=#d5e8d4;strokeColor=#82b366;" vertex="1" parent="5tbBxWRqEk4kRLeEOehm-81">
          <mxGeometry x="343" y="365" width="130" height="200" as="geometry" />
        </mxCell>
        <mxCell id="5tbBxWRqEk4kRLeEOehm-9" value="" style="whiteSpace=wrap;html=1;fillColor=#d5e8d4;strokeColor=#82b366;" vertex="1" parent="5tbBxWRqEk4kRLeEOehm-81">
          <mxGeometry x="125" y="365" width="130" height="200" as="geometry" />
        </mxCell>
        <mxCell id="5tbBxWRqEk4kRLeEOehm-3" value="" style="edgeStyle=orthogonalEdgeStyle;rounded=0;orthogonalLoop=1;jettySize=auto;html=1;" edge="1" parent="5tbBxWRqEk4kRLeEOehm-81" source="5tbBxWRqEk4kRLeEOehm-1" target="5tbBxWRqEk4kRLeEOehm-2">
          <mxGeometry relative="1" as="geometry" />
        </mxCell>
        <mxCell id="5tbBxWRqEk4kRLeEOehm-1" value="" style="html=1;verticalLabelPosition=bottom;align=center;labelBackgroundColor=#ffffff;verticalAlign=top;strokeWidth=2;strokeColor=#0080F0;shadow=0;dashed=0;shape=mxgraph.ios7.icons.user;" vertex="1" parent="5tbBxWRqEk4kRLeEOehm-81">
          <mxGeometry x="269.5" width="51" height="50" as="geometry" />
        </mxCell>
        <mxCell id="5tbBxWRqEk4kRLeEOehm-5" value="" style="edgeStyle=orthogonalEdgeStyle;rounded=0;orthogonalLoop=1;jettySize=auto;html=1;" edge="1" parent="5tbBxWRqEk4kRLeEOehm-81" source="5tbBxWRqEk4kRLeEOehm-2" target="5tbBxWRqEk4kRLeEOehm-4">
          <mxGeometry relative="1" as="geometry" />
        </mxCell>
        <mxCell id="5tbBxWRqEk4kRLeEOehm-2" value="" style="sketch=0;points=[[0,0,0],[0.25,0,0],[0.5,0,0],[0.75,0,0],[1,0,0],[0,1,0],[0.25,1,0],[0.5,1,0],[0.75,1,0],[1,1,0],[0,0.25,0],[0,0.5,0],[0,0.75,0],[1,0.25,0],[1,0.5,0],[1,0.75,0]];outlineConnect=0;fontColor=#232F3E;fillColor=#8C4FFF;strokeColor=#ffffff;dashed=0;verticalLabelPosition=bottom;verticalAlign=top;align=center;html=1;fontSize=12;fontStyle=0;aspect=fixed;shape=mxgraph.aws4.resourceIcon;resIcon=mxgraph.aws4.route_53;" vertex="1" parent="5tbBxWRqEk4kRLeEOehm-81">
          <mxGeometry x="259.25" y="105" width="69.5" height="69.5" as="geometry" />
        </mxCell>
        <mxCell id="5tbBxWRqEk4kRLeEOehm-26" value="" style="edgeStyle=orthogonalEdgeStyle;rounded=0;orthogonalLoop=1;jettySize=auto;html=1;" edge="1" parent="5tbBxWRqEk4kRLeEOehm-81" source="5tbBxWRqEk4kRLeEOehm-4" target="5tbBxWRqEk4kRLeEOehm-8">
          <mxGeometry relative="1" as="geometry" />
        </mxCell>
        <mxCell id="5tbBxWRqEk4kRLeEOehm-4" value="" style="sketch=0;outlineConnect=0;fontColor=#232F3E;gradientColor=none;fillColor=#8C4FFF;strokeColor=none;dashed=0;verticalLabelPosition=bottom;verticalAlign=top;align=center;html=1;fontSize=12;fontStyle=0;aspect=fixed;pointerEvents=1;shape=mxgraph.aws4.application_load_balancer;" vertex="1" parent="5tbBxWRqEk4kRLeEOehm-81">
          <mxGeometry x="255" y="225" width="78" height="78" as="geometry" />
        </mxCell>
        <mxCell id="5tbBxWRqEk4kRLeEOehm-6" value="" style="outlineConnect=0;dashed=0;verticalLabelPosition=bottom;verticalAlign=top;align=center;html=1;shape=mxgraph.aws3.ec2;fillColor=#F58534;gradientColor=none;" vertex="1" parent="5tbBxWRqEk4kRLeEOehm-81">
          <mxGeometry x="161.5" y="430" width="60" height="60" as="geometry" />
        </mxCell>
        <mxCell id="5tbBxWRqEk4kRLeEOehm-7" value="" style="outlineConnect=0;dashed=0;verticalLabelPosition=bottom;verticalAlign=top;align=center;html=1;shape=mxgraph.aws3.ec2;fillColor=#F58534;gradientColor=none;" vertex="1" parent="5tbBxWRqEk4kRLeEOehm-81">
          <mxGeometry x="382" y="430" width="60" height="60" as="geometry" />
        </mxCell>
        <mxCell id="5tbBxWRqEk4kRLeEOehm-11" value="" style="sketch=0;outlineConnect=0;fontColor=#232F3E;gradientColor=none;fillColor=#7AA116;strokeColor=none;dashed=0;verticalLabelPosition=bottom;verticalAlign=top;align=center;html=1;fontSize=12;fontStyle=0;aspect=fixed;pointerEvents=1;shape=mxgraph.aws4.bucket_with_objects;" vertex="1" parent="5tbBxWRqEk4kRLeEOehm-81">
          <mxGeometry x="645" y="421" width="75" height="78" as="geometry" />
        </mxCell>
        <mxCell id="5tbBxWRqEk4kRLeEOehm-12" value="" style="outlineConnect=0;dashed=0;verticalLabelPosition=bottom;verticalAlign=top;align=center;html=1;shape=mxgraph.aws3.dynamo_db;fillColor=#2E73B8;gradientColor=none;" vertex="1" parent="5tbBxWRqEk4kRLeEOehm-81">
          <mxGeometry x="264" y="1165" width="92" height="110" as="geometry" />
        </mxCell>
        <mxCell id="5tbBxWRqEk4kRLeEOehm-31" value="" style="edgeStyle=orthogonalEdgeStyle;rounded=0;orthogonalLoop=1;jettySize=auto;html=1;" edge="1" parent="5tbBxWRqEk4kRLeEOehm-81" source="5tbBxWRqEk4kRLeEOehm-14" target="5tbBxWRqEk4kRLeEOehm-23">
          <mxGeometry relative="1" as="geometry" />
        </mxCell>
        <mxCell id="5tbBxWRqEk4kRLeEOehm-14" value="" style="sketch=0;points=[[0,0,0],[0.25,0,0],[0.5,0,0],[0.75,0,0],[1,0,0],[0,1,0],[0.25,1,0],[0.5,1,0],[0.75,1,0],[1,1,0],[0,0.25,0],[0,0.5,0],[0,0.75,0],[1,0.25,0],[1,0.5,0],[1,0.75,0]];outlineConnect=0;fontColor=#232F3E;fillColor=#E7157B;strokeColor=#ffffff;dashed=0;verticalLabelPosition=bottom;verticalAlign=top;align=center;html=1;fontSize=12;fontStyle=0;aspect=fixed;shape=mxgraph.aws4.resourceIcon;resIcon=mxgraph.aws4.sqs;" vertex="1" parent="5tbBxWRqEk4kRLeEOehm-81">
          <mxGeometry x="271" y="595" width="78" height="78" as="geometry" />
        </mxCell>
        <mxCell id="5tbBxWRqEk4kRLeEOehm-15" value="" style="whiteSpace=wrap;html=1;fillColor=#dae8fc;strokeColor=#6c8ebf;" vertex="1" parent="5tbBxWRqEk4kRLeEOehm-81">
          <mxGeometry x="120" y="916" width="380" height="140" as="geometry" />
        </mxCell>
        <mxCell id="5tbBxWRqEk4kRLeEOehm-16" value="" style="whiteSpace=wrap;html=1;fillColor=#d5e8d4;strokeColor=#82b366;" vertex="1" parent="5tbBxWRqEk4kRLeEOehm-81">
          <mxGeometry x="356" y="891" width="130" height="200" as="geometry" />
        </mxCell>
        <mxCell id="5tbBxWRqEk4kRLeEOehm-17" value="" style="whiteSpace=wrap;html=1;fillColor=#d5e8d4;strokeColor=#82b366;" vertex="1" parent="5tbBxWRqEk4kRLeEOehm-81">
          <mxGeometry x="138" y="891" width="130" height="200" as="geometry" />
        </mxCell>
        <mxCell id="5tbBxWRqEk4kRLeEOehm-18" value="" style="outlineConnect=0;dashed=0;verticalLabelPosition=bottom;verticalAlign=top;align=center;html=1;shape=mxgraph.aws3.ec2;fillColor=#F58534;gradientColor=none;" vertex="1" parent="5tbBxWRqEk4kRLeEOehm-81">
          <mxGeometry x="174.5" y="956" width="60" height="60" as="geometry" />
        </mxCell>
        <mxCell id="5tbBxWRqEk4kRLeEOehm-19" value="" style="outlineConnect=0;dashed=0;verticalLabelPosition=bottom;verticalAlign=top;align=center;html=1;shape=mxgraph.aws3.ec2;fillColor=#F58534;gradientColor=none;" vertex="1" parent="5tbBxWRqEk4kRLeEOehm-81">
          <mxGeometry x="395" y="956" width="60" height="60" as="geometry" />
        </mxCell>
        <mxCell id="5tbBxWRqEk4kRLeEOehm-20" value="" style="sketch=0;outlineConnect=0;fontColor=#232F3E;gradientColor=none;fillColor=#7AA116;strokeColor=none;dashed=0;verticalLabelPosition=bottom;verticalAlign=top;align=center;html=1;fontSize=12;fontStyle=0;aspect=fixed;pointerEvents=1;shape=mxgraph.aws4.bucket_with_objects;" vertex="1" parent="5tbBxWRqEk4kRLeEOehm-81">
          <mxGeometry x="125" y="1412" width="75" height="78" as="geometry" />
        </mxCell>
        <mxCell id="5tbBxWRqEk4kRLeEOehm-21" value="" style="sketch=0;outlineConnect=0;fontColor=#232F3E;gradientColor=none;fillColor=#7AA116;strokeColor=none;dashed=0;verticalLabelPosition=bottom;verticalAlign=top;align=center;html=1;fontSize=12;fontStyle=0;aspect=fixed;pointerEvents=1;shape=mxgraph.aws4.bucket_with_objects;" vertex="1" parent="5tbBxWRqEk4kRLeEOehm-81">
          <mxGeometry x="259.5" y="1409" width="75" height="78" as="geometry" />
        </mxCell>
        <mxCell id="5tbBxWRqEk4kRLeEOehm-22" value="" style="sketch=0;outlineConnect=0;fontColor=#232F3E;gradientColor=none;fillColor=#7AA116;strokeColor=none;dashed=0;verticalLabelPosition=bottom;verticalAlign=top;align=center;html=1;fontSize=12;fontStyle=0;aspect=fixed;pointerEvents=1;shape=mxgraph.aws4.bucket_with_objects;" vertex="1" parent="5tbBxWRqEk4kRLeEOehm-81">
          <mxGeometry x="398" y="1409" width="75" height="78" as="geometry" />
        </mxCell>
        <mxCell id="5tbBxWRqEk4kRLeEOehm-32" value="" style="edgeStyle=orthogonalEdgeStyle;rounded=0;orthogonalLoop=1;jettySize=auto;html=1;" edge="1" parent="5tbBxWRqEk4kRLeEOehm-81" source="5tbBxWRqEk4kRLeEOehm-23" target="5tbBxWRqEk4kRLeEOehm-15">
          <mxGeometry relative="1" as="geometry" />
        </mxCell>
        <mxCell id="5tbBxWRqEk4kRLeEOehm-23" value="" style="sketch=0;outlineConnect=0;fontColor=#232F3E;gradientColor=none;fillColor=#8C4FFF;strokeColor=none;dashed=0;verticalLabelPosition=bottom;verticalAlign=top;align=center;html=1;fontSize=12;fontStyle=0;aspect=fixed;pointerEvents=1;shape=mxgraph.aws4.application_load_balancer;" vertex="1" parent="5tbBxWRqEk4kRLeEOehm-81">
          <mxGeometry x="271" y="755" width="78" height="78" as="geometry" />
        </mxCell>
        <mxCell id="5tbBxWRqEk4kRLeEOehm-27" value="" style="edgeStyle=none;orthogonalLoop=1;jettySize=auto;html=1;rounded=0;entryX=0;entryY=0.5;entryDx=0;entryDy=0;entryPerimeter=0;fillColor=#f8cecc;strokeColor=#b85450;" edge="1" parent="5tbBxWRqEk4kRLeEOehm-81" target="5tbBxWRqEk4kRLeEOehm-12">
          <mxGeometry width="100" relative="1" as="geometry">
            <mxPoint x="175" y="569" as="sourcePoint" />
            <mxPoint x="265" y="1315" as="targetPoint" />
            <Array as="points">
              <mxPoint x="175" y="605" />
              <mxPoint x="175" y="825" />
              <mxPoint x="65" y="825" />
              <mxPoint x="65" y="1220" />
            </Array>
          </mxGeometry>
        </mxCell>
        <mxCell id="5tbBxWRqEk4kRLeEOehm-28" value="" style="edgeStyle=none;orthogonalLoop=1;jettySize=auto;html=1;rounded=0;entryX=1;entryY=0.5;entryDx=0;entryDy=0;entryPerimeter=0;fillColor=#f8cecc;strokeColor=#b85450;" edge="1" parent="5tbBxWRqEk4kRLeEOehm-81" target="5tbBxWRqEk4kRLeEOehm-12">
          <mxGeometry width="100" relative="1" as="geometry">
            <mxPoint x="425" y="565" as="sourcePoint" />
            <mxPoint x="355" y="1315" as="targetPoint" />
            <Array as="points">
              <mxPoint x="425" y="625" />
              <mxPoint x="425" y="815" />
              <mxPoint x="525" y="815" />
              <mxPoint x="525" y="1220" />
            </Array>
          </mxGeometry>
        </mxCell>
        <mxCell id="5tbBxWRqEk4kRLeEOehm-30" value="" style="edgeStyle=none;orthogonalLoop=1;jettySize=auto;html=1;rounded=0;entryX=0.5;entryY=0;entryDx=0;entryDy=0;entryPerimeter=0;exitX=0.539;exitY=0.987;exitDx=0;exitDy=0;exitPerimeter=0;" edge="1" parent="5tbBxWRqEk4kRLeEOehm-81" source="5tbBxWRqEk4kRLeEOehm-8" target="5tbBxWRqEk4kRLeEOehm-14">
          <mxGeometry width="100" relative="1" as="geometry">
            <mxPoint x="310" y="535" as="sourcePoint" />
            <mxPoint x="347" y="615" as="targetPoint" />
            <Array as="points" />
          </mxGeometry>
        </mxCell>
        <mxCell id="5tbBxWRqEk4kRLeEOehm-33" value="" style="edgeStyle=none;orthogonalLoop=1;jettySize=auto;html=1;rounded=0;exitX=0.178;exitY=0.994;exitDx=0;exitDy=0;exitPerimeter=0;fillColor=#dae8fc;strokeColor=#6c8ebf;" edge="1" parent="5tbBxWRqEk4kRLeEOehm-81" source="5tbBxWRqEk4kRLeEOehm-17" target="5tbBxWRqEk4kRLeEOehm-20">
          <mxGeometry width="100" relative="1" as="geometry">
            <mxPoint x="165" y="1175" as="sourcePoint" />
            <mxPoint x="155" y="1205" as="targetPoint" />
            <Array as="points" />
          </mxGeometry>
        </mxCell>
        <mxCell id="5tbBxWRqEk4kRLeEOehm-36" value="" style="edgeStyle=none;orthogonalLoop=1;jettySize=auto;html=1;rounded=0;fillColor=#dae8fc;strokeColor=#6c8ebf;" edge="1" parent="5tbBxWRqEk4kRLeEOehm-81" target="5tbBxWRqEk4kRLeEOehm-21">
          <mxGeometry width="100" relative="1" as="geometry">
            <mxPoint x="161.5" y="1369" as="sourcePoint" />
            <mxPoint x="261.5" y="1369" as="targetPoint" />
            <Array as="points">
              <mxPoint x="295" y="1369" />
            </Array>
          </mxGeometry>
        </mxCell>
        <mxCell id="5tbBxWRqEk4kRLeEOehm-38" value="" style="edgeStyle=none;orthogonalLoop=1;jettySize=auto;html=1;rounded=0;fillColor=#dae8fc;strokeColor=#6c8ebf;" edge="1" parent="5tbBxWRqEk4kRLeEOehm-81" target="5tbBxWRqEk4kRLeEOehm-22">
          <mxGeometry width="100" relative="1" as="geometry">
            <mxPoint x="161.5" y="1339" as="sourcePoint" />
            <mxPoint x="425" y="1399" as="targetPoint" />
            <Array as="points">
              <mxPoint x="436" y="1339" />
            </Array>
          </mxGeometry>
        </mxCell>
        <mxCell id="5tbBxWRqEk4kRLeEOehm-39" value="" style="edgeStyle=none;orthogonalLoop=1;jettySize=auto;html=1;rounded=0;entryX=0.5;entryY=0;entryDx=0;entryDy=0;entryPerimeter=0;exitX=0.5;exitY=1;exitDx=0;exitDy=0;fillColor=#f8cecc;strokeColor=#b85450;" edge="1" parent="5tbBxWRqEk4kRLeEOehm-81" source="5tbBxWRqEk4kRLeEOehm-15" target="5tbBxWRqEk4kRLeEOehm-12">
          <mxGeometry width="100" relative="1" as="geometry">
            <mxPoint x="234.5" y="1215" as="sourcePoint" />
            <mxPoint x="334.5" y="1215" as="targetPoint" />
            <Array as="points" />
          </mxGeometry>
        </mxCell>
        <mxCell id="5tbBxWRqEk4kRLeEOehm-40" value="Original image&lt;div&gt;bucket&lt;/div&gt;" style="text;html=1;align=center;verticalAlign=middle;resizable=0;points=[];autosize=1;strokeColor=none;fillColor=none;" vertex="1" parent="5tbBxWRqEk4kRLeEOehm-81">
          <mxGeometry x="632.5" y="505" width="100" height="40" as="geometry" />
        </mxCell>
        <mxCell id="5tbBxWRqEk4kRLeEOehm-41" value="Application&amp;nbsp;&lt;div&gt;Load balancer&lt;/div&gt;" style="text;html=1;align=center;verticalAlign=middle;resizable=0;points=[];autosize=1;strokeColor=none;fillColor=none;" vertex="1" parent="5tbBxWRqEk4kRLeEOehm-81">
          <mxGeometry x="328.75" y="215" width="100" height="40" as="geometry" />
        </mxCell>
        <mxCell id="5tbBxWRqEk4kRLeEOehm-43" value="AZ -1" style="text;html=1;align=center;verticalAlign=middle;resizable=0;points=[];autosize=1;strokeColor=none;fillColor=none;" vertex="1" parent="5tbBxWRqEk4kRLeEOehm-81">
          <mxGeometry x="165" y="333" width="50" height="30" as="geometry" />
        </mxCell>
        <mxCell id="5tbBxWRqEk4kRLeEOehm-44" value="AZ -2" style="text;html=1;align=center;verticalAlign=middle;resizable=0;points=[];autosize=1;strokeColor=none;fillColor=none;" vertex="1" parent="5tbBxWRqEk4kRLeEOehm-81">
          <mxGeometry x="383" y="333" width="50" height="30" as="geometry" />
        </mxCell>
        <mxCell id="5tbBxWRqEk4kRLeEOehm-45" value="Auto scaling group" style="text;html=1;align=center;verticalAlign=middle;resizable=0;points=[];autosize=1;strokeColor=none;fillColor=none;rotation=-90;" vertex="1" parent="5tbBxWRqEk4kRLeEOehm-81">
          <mxGeometry x="15" y="443" width="120" height="30" as="geometry" />
        </mxCell>
        <mxCell id="5tbBxWRqEk4kRLeEOehm-46" value="Dynamo DB" style="text;html=1;align=center;verticalAlign=middle;resizable=0;points=[];autosize=1;strokeColor=none;fillColor=none;" vertex="1" parent="5tbBxWRqEk4kRLeEOehm-81">
          <mxGeometry x="363" y="1175" width="90" height="30" as="geometry" />
        </mxCell>
        <mxCell id="5tbBxWRqEk4kRLeEOehm-47" value="Route 53" style="text;html=1;align=center;verticalAlign=middle;resizable=0;points=[];autosize=1;strokeColor=none;fillColor=none;" vertex="1" parent="5tbBxWRqEk4kRLeEOehm-81">
          <mxGeometry x="343" y="124.75" width="70" height="30" as="geometry" />
        </mxCell>
        <mxCell id="5tbBxWRqEk4kRLeEOehm-48" value="SQS" style="text;html=1;align=center;verticalAlign=middle;resizable=0;points=[];autosize=1;strokeColor=none;fillColor=none;" vertex="1" parent="5tbBxWRqEk4kRLeEOehm-81">
          <mxGeometry x="209.5" y="619" width="50" height="30" as="geometry" />
        </mxCell>
        <mxCell id="5tbBxWRqEk4kRLeEOehm-49" value="Image Processing Service" style="text;html=1;align=center;verticalAlign=middle;resizable=0;points=[];autosize=1;strokeColor=none;fillColor=none;rotation=-90;" vertex="1" parent="5tbBxWRqEk4kRLeEOehm-81">
          <mxGeometry x="5" y="965" width="160" height="30" as="geometry" />
        </mxCell>
        <mxCell id="5tbBxWRqEk4kRLeEOehm-50" value="AZ -1" style="text;html=1;align=center;verticalAlign=middle;resizable=0;points=[];autosize=1;strokeColor=none;fillColor=none;" vertex="1" parent="5tbBxWRqEk4kRLeEOehm-81">
          <mxGeometry x="178" y="861" width="50" height="30" as="geometry" />
        </mxCell>
        <mxCell id="5tbBxWRqEk4kRLeEOehm-51" value="AZ -2" style="text;html=1;align=center;verticalAlign=middle;resizable=0;points=[];autosize=1;strokeColor=none;fillColor=none;" vertex="1" parent="5tbBxWRqEk4kRLeEOehm-81">
          <mxGeometry x="400" y="861" width="50" height="30" as="geometry" />
        </mxCell>
        <mxCell id="5tbBxWRqEk4kRLeEOehm-52" value="ALB" style="text;html=1;align=center;verticalAlign=middle;resizable=0;points=[];autosize=1;strokeColor=none;fillColor=none;" vertex="1" parent="5tbBxWRqEk4kRLeEOehm-81">
          <mxGeometry x="350" y="779" width="50" height="30" as="geometry" />
        </mxCell>
        <mxCell id="5tbBxWRqEk4kRLeEOehm-53" value="Low-scale level 1&lt;div&gt;bucket&lt;/div&gt;" style="text;html=1;align=center;verticalAlign=middle;resizable=0;points=[];autosize=1;strokeColor=none;fillColor=none;" vertex="1" parent="5tbBxWRqEk4kRLeEOehm-81">
          <mxGeometry x="100" y="1509" width="120" height="40" as="geometry" />
        </mxCell>
        <mxCell id="5tbBxWRqEk4kRLeEOehm-54" value="Low-scale level 2&lt;div&gt;bucket&lt;/div&gt;" style="text;html=1;align=center;verticalAlign=middle;resizable=0;points=[];autosize=1;strokeColor=none;fillColor=none;" vertex="1" parent="5tbBxWRqEk4kRLeEOehm-81">
          <mxGeometry x="237" y="1509" width="120" height="40" as="geometry" />
        </mxCell>
        <mxCell id="5tbBxWRqEk4kRLeEOehm-55" value="Low-scale level 3&lt;div&gt;bucket&lt;/div&gt;" style="text;html=1;align=center;verticalAlign=middle;resizable=0;points=[];autosize=1;strokeColor=none;fillColor=none;" vertex="1" parent="5tbBxWRqEk4kRLeEOehm-81">
          <mxGeometry x="375.5" y="1509" width="120" height="40" as="geometry" />
        </mxCell>
        <mxCell id="5tbBxWRqEk4kRLeEOehm-56" value="Client" style="text;html=1;align=center;verticalAlign=middle;resizable=0;points=[];autosize=1;strokeColor=none;fillColor=none;" vertex="1" parent="5tbBxWRqEk4kRLeEOehm-81">
          <mxGeometry x="334.5" y="10" width="50" height="30" as="geometry" />
        </mxCell>
        <mxCell id="5tbBxWRqEk4kRLeEOehm-67" value="&lt;span style=&quot;font-size: 11px;&quot;&gt;Writing original&lt;/span&gt;&lt;div style=&quot;font-size: 11px;&quot;&gt;image location to&amp;nbsp;&lt;/div&gt;&lt;div style=&quot;font-size: 11px;&quot;&gt;DB&amp;nbsp;&lt;/div&gt;&lt;div style=&quot;font-size: 11px;&quot;&gt;also fetches&amp;nbsp;&lt;/div&gt;&lt;div style=&quot;font-size: 11px;&quot;&gt;image location from&lt;/div&gt;&lt;div style=&quot;font-size: 11px;&quot;&gt;DB&lt;/div&gt;" style="text;html=1;align=center;verticalAlign=middle;resizable=0;points=[];autosize=1;strokeColor=none;fillColor=none;" vertex="1" parent="5tbBxWRqEk4kRLeEOehm-81">
          <mxGeometry x="433" y="643" width="120" height="90" as="geometry" />
        </mxCell>
        <mxCell id="5tbBxWRqEk4kRLeEOehm-69" value="&lt;span style=&quot;font-size: 11px;&quot;&gt;Writing original&lt;/span&gt;&lt;div style=&quot;font-size: 11px;&quot;&gt;image location to&amp;nbsp;&lt;/div&gt;&lt;div style=&quot;font-size: 11px;&quot;&gt;DB&amp;nbsp;&lt;/div&gt;&lt;div style=&quot;font-size: 11px;&quot;&gt;also fetches&amp;nbsp;&lt;/div&gt;&lt;div style=&quot;font-size: 11px;&quot;&gt;image location from&lt;/div&gt;&lt;div style=&quot;font-size: 11px;&quot;&gt;DB&lt;/div&gt;" style="text;html=1;align=center;verticalAlign=middle;resizable=0;points=[];autosize=1;strokeColor=none;fillColor=none;" vertex="1" parent="5tbBxWRqEk4kRLeEOehm-81">
          <mxGeometry x="54.5" y="643" width="120" height="90" as="geometry" />
        </mxCell>
        <mxCell id="5tbBxWRqEk4kRLeEOehm-70" value="&lt;span style=&quot;font-size: 11px;&quot;&gt;Images in queues&lt;/span&gt;&lt;div style=&quot;font-size: 11px;&quot;&gt;to the image&amp;nbsp;&lt;/div&gt;&lt;div style=&quot;font-size: 11px;&quot;&gt;processing service&lt;/div&gt;" style="text;html=1;align=center;verticalAlign=middle;resizable=0;points=[];autosize=1;strokeColor=none;fillColor=none;" vertex="1" parent="5tbBxWRqEk4kRLeEOehm-81">
          <mxGeometry x="195" y="695" width="110" height="50" as="geometry" />
        </mxCell>
        <mxCell id="5tbBxWRqEk4kRLeEOehm-71" value="&lt;span style=&quot;font-size: 11px;&quot;&gt;Stores the image&lt;/span&gt;&lt;div style=&quot;font-size: 11px;&quot;&gt;in S3 bucket&lt;/div&gt;" style="text;html=1;align=center;verticalAlign=middle;resizable=0;points=[];autosize=1;strokeColor=none;fillColor=none;" vertex="1" parent="5tbBxWRqEk4kRLeEOehm-81">
          <mxGeometry x="490" y="415" width="110" height="40" as="geometry" />
        </mxCell>
        <mxCell id="5tbBxWRqEk4kRLeEOehm-72" value="&lt;span style=&quot;font-size: 11px;&quot;&gt;Writes processed&lt;/span&gt;&lt;div style=&quot;font-size: 11px;&quot;&gt;low scale image&lt;/div&gt;&lt;div style=&quot;font-size: 11px;&quot;&gt;locations and meta to&amp;nbsp;&lt;/div&gt;&lt;div style=&quot;font-size: 11px;&quot;&gt;db&lt;/div&gt;" style="text;html=1;align=center;verticalAlign=middle;resizable=0;points=[];autosize=1;strokeColor=none;fillColor=none;" vertex="1" parent="5tbBxWRqEk4kRLeEOehm-81">
          <mxGeometry x="360" y="1105" width="130" height="70" as="geometry" />
        </mxCell>
        <mxCell id="5tbBxWRqEk4kRLeEOehm-73" value="&lt;span style=&quot;font-size: 11px;&quot;&gt;Store images&lt;/span&gt;&lt;div style=&quot;font-size: 11px;&quot;&gt;to S3 buckets&lt;/div&gt;" style="text;html=1;align=center;verticalAlign=middle;resizable=0;points=[];autosize=1;strokeColor=none;fillColor=none;" vertex="1" parent="5tbBxWRqEk4kRLeEOehm-81">
          <mxGeometry x="65" y="1115" width="90" height="40" as="geometry" />
        </mxCell>
        <mxCell id="5tbBxWRqEk4kRLeEOehm-74" value="EC2" style="text;html=1;align=center;verticalAlign=middle;resizable=0;points=[];autosize=1;strokeColor=none;fillColor=none;" vertex="1" parent="5tbBxWRqEk4kRLeEOehm-81">
          <mxGeometry x="165" y="499" width="50" height="30" as="geometry" />
        </mxCell>
        <mxCell id="5tbBxWRqEk4kRLeEOehm-75" value="EC2" style="text;html=1;align=center;verticalAlign=middle;resizable=0;points=[];autosize=1;strokeColor=none;fillColor=none;" vertex="1" parent="5tbBxWRqEk4kRLeEOehm-81">
          <mxGeometry x="387" y="500" width="50" height="30" as="geometry" />
        </mxCell>
        <mxCell id="5tbBxWRqEk4kRLeEOehm-76" value="EC2" style="text;html=1;align=center;verticalAlign=middle;resizable=0;points=[];autosize=1;strokeColor=none;fillColor=none;" vertex="1" parent="5tbBxWRqEk4kRLeEOehm-81">
          <mxGeometry x="178" y="1026" width="50" height="30" as="geometry" />
        </mxCell>
        <mxCell id="5tbBxWRqEk4kRLeEOehm-77" value="EC2" style="text;html=1;align=center;verticalAlign=middle;resizable=0;points=[];autosize=1;strokeColor=none;fillColor=none;" vertex="1" parent="5tbBxWRqEk4kRLeEOehm-81">
          <mxGeometry x="400" y="1025" width="50" height="30" as="geometry" />
        </mxCell>
        <mxCell id="5tbBxWRqEk4kRLeEOehm-79" value="&lt;span style=&quot;font-size: 11px;&quot;&gt;VPC&lt;/span&gt;" style="text;html=1;align=center;verticalAlign=middle;resizable=0;points=[];autosize=1;strokeColor=none;fillColor=none;" vertex="1" parent="5tbBxWRqEk4kRLeEOehm-81">
          <mxGeometry x="5" y="1340" width="50" height="30" as="geometry" />
        </mxCell>
        <mxCell id="5tbBxWRqEk4kRLeEOehm-80" value="public subnet" style="text;html=1;align=center;verticalAlign=middle;resizable=0;points=[];autosize=1;strokeColor=none;fillColor=none;" vertex="1" parent="5tbBxWRqEk4kRLeEOehm-81">
          <mxGeometry x="165" y="220" width="90" height="30" as="geometry" />
        </mxCell>
      </root>
    </mxGraphModel>
  </diagram>
</mxfile>
